<svg viewBox="0 0 64 64" xml:space="preserve" xmlns="http://www.w3.org/2000/svg"><path d="M49.109 13.836H34.903v.005H10.964v9.216c0 9.909 8.032 17.941 17.941 17.941 7.284 0 13.541-4.349 16.352-10.585h3.853c4.57 0 8.289-3.718 8.289-8.289s-3.719-8.288-8.29-8.288zm0 12.215h-2.533c.164-.976.27-1.971.27-2.994v-4.859h2.263c2.165 0 3.926 1.761 3.926 3.926s-1.761 3.927-3.926 3.927zM10.055 48.675c.502.823 1.69 1.49 2.654 1.49h32.392c.964 0 2.152-.667 2.654-1.49l3.454-5.659H6.602l3.453 5.659z" fill="#ffffff" class="fill-000000"></path></svg>